<svg width="162" height="30" viewBox="0 0 162 30" fill="none" xmlns="http://www.w3.org/2000/svg">
<path opacity="0.32" d="M19.973 2.27027C11.0811 2.27027 3.86487 9.45946 3.86487 18.3243C3.86487 21.6216 4.89189 24.8378 6.78378 27.5405C2.7027 24.8378 0 20.2432 0 15C0 6.72973 6.72973 0 15.0541 0C18.2432 0 21.1892 1 23.6216 2.67568C22.4324 2.40541 21.2162 2.27027 19.973 2.27027ZM27.9459 7.24324C29.027 9.05405 29.7027 10.8919 30 13.1081C28.1351 12.2432 26.0541 11.8649 23.8649 11.8649C15.7838 11.8649 9.24324 18.3784 9.24324 26.4054C9.24324 27 9.27027 27.5946 9.35135 28.1622C8.13513 25.973 7.48649 23.4865 7.51351 20.973C7.51351 12.7568 14.2162 6.08108 22.4865 6.08108C24.3513 6.10811 26.2973 6.62162 27.9459 7.24324ZM27.9459 22.7568C26.8378 22.2973 25.6757 22.0541 24.4865 22C22.2703 21.8919 20.0811 22.5135 18.2162 23.7568C16.3784 25 14.973 26.8108 14.2432 28.9189C14.2162 28.5676 14.2162 28.1892 14.2432 27.8378C14.5405 21.1892 20.1892 16.0541 26.8649 16.3514C27.9459 16.4054 29 16.6216 29.973 16.9459C29.7297 18.973 29.027 20.973 27.9459 22.7568Z" fill="#2B2B51"/>
<path d="M19.973 27.7297C11.0811 27.7297 3.86487 20.5405 3.86487 11.6756C3.86487 8.24322 4.94595 5.08105 6.78378 2.45943C2.7027 5.16214 0 9.75673 0 15C0 23.2702 6.72973 30 15.0541 30C18.2432 30 21.1892 29.027 23.6216 27.3243C22.4324 27.5946 21.2162 27.7297 19.973 27.7297ZM27.8378 22.9189C28.973 21.0811 29.7297 19.027 30 16.8919C28.1081 17.7567 26.0541 18.2162 23.973 18.2162C16.0541 18.2162 10.0541 11.8108 10.0541 3.94592C10.0541 3.35132 10.0811 2.78376 10.1622 2.21619C8.97297 4.37835 8.35135 6.78376 8.35135 9.27024C8.35135 17.3513 14.4865 23.8919 22.6216 23.8919C24.4595 23.8919 26.2162 23.5405 27.8378 22.9189ZM27.9459 7.24322C26.8378 7.70268 25.6757 7.94592 24.4865 7.99997C22.2703 8.10808 20.0811 7.48646 18.2162 6.24322C16.3784 4.99997 14.973 3.18916 14.2432 1.08105C14.2162 1.43241 14.2162 1.81078 14.2432 2.16214C14.5405 8.81078 20.1892 13.9459 26.8649 13.6486C27.9189 13.5946 28.973 13.4054 29.973 13.1081C29.7297 11.054 29.027 9.027 27.9459 7.24322Z" fill="#2B2B51"/>
<path d="M40.8911 21.7285V7.62036H50.8641V9.64739H43.1073V12.6204H46.8641C48.4587 12.6204 49.7289 13.0258 50.6479 13.8906C51.5938 14.7285 52.0262 15.8096 52.0262 17.1609C52.0262 18.5123 51.5668 19.6204 50.6479 20.4312C49.7289 21.269 48.4587 21.6744 46.8641 21.6744L40.8911 21.7285ZM43.1073 19.7014H46.6749C48.6749 19.7014 49.783 18.7825 49.783 17.1879C49.783 15.5933 48.6208 14.6744 46.6749 14.6744H43.1073V19.7014Z" fill="#2B2B51"/>
<path d="M55.3506 21.7285V7.62036H57.5668V13.3771L63.3506 7.62036H66.2155L59.6749 14.0798L67.2695 21.7555H64.2425L57.5938 14.9717V21.7555L55.3506 21.7285Z" fill="#2B2B51"/>
<path d="M69.9994 19.9446C68.594 18.5663 67.8643 16.8095 67.8643 14.6744C67.8643 12.5392 68.567 10.8095 69.9994 9.43113C71.4048 8.05275 73.1886 7.37708 75.3237 7.37708C76.7832 7.37708 78.0534 7.7014 79.1616 8.32302V10.5663C77.9994 9.80951 76.7291 9.45816 75.3507 9.45816C73.8913 9.45816 72.621 9.94464 71.621 10.9446C70.621 11.9446 70.1616 13.1879 70.1616 14.7014C70.1616 16.2149 70.648 17.4852 71.648 18.4852C72.6751 19.4852 73.9183 19.9446 75.4318 19.9446C77.0264 19.9446 78.3778 19.5392 79.4588 18.6473V20.8906C78.2967 21.6473 76.9183 22.0257 75.3237 22.0257C73.1886 21.9987 71.4318 21.296 69.9994 19.9446Z" fill="#2B2B51"/>
<path d="M89.0802 20.242C88.1343 19.0528 87.6748 17.4852 87.6748 15.4852C87.6748 13.1879 88.2424 11.5123 89.2153 10.4042C89.6748 9.83658 90.3235 9.3501 91.1343 8.94469C91.9721 8.53929 92.837 8.21496 93.7289 7.99874C94.6478 7.78253 95.7559 7.56631 97.0802 7.3501V9.3501C94.9451 9.7555 93.5937 10.0528 92.9991 10.269C91.5126 10.7555 90.5126 11.5663 90.0532 12.6744C89.864 13.1339 89.7289 13.7014 89.7018 14.3501C90.5397 13.1339 91.9991 12.4042 93.7289 12.4042C95.0262 12.4042 96.1072 12.8096 96.9181 13.6474C97.7829 14.4852 98.1883 15.5663 98.1883 16.9177C98.1883 18.4312 97.7018 19.6474 96.7289 20.6204C95.7559 21.5663 94.5397 22.0258 93.1072 22.0258C91.3505 21.9987 90.0262 21.4042 89.0802 20.242ZM95.1613 19.242C95.7018 18.6744 95.9991 17.9447 95.9991 17.0528C95.9991 15.3501 94.8099 14.242 93.1883 14.242C91.8099 14.242 90.4856 15.1339 89.837 16.242C89.9451 18.6744 91.1072 20.0798 93.1072 20.0798C93.891 20.0798 94.5937 19.7825 95.1613 19.242Z" fill="#2B2B51"/>
<path d="M110.215 13.0798C111.133 14.1068 111.566 15.323 111.566 16.8095C111.566 18.269 111.133 19.4852 110.215 20.5122C109.296 21.5393 108.161 22.0257 106.755 22.0257C105.215 22.0257 104.052 21.4852 103.215 20.4041V25.7825H101.025V11.8366H103.215V13.1879C104.052 12.1068 105.215 11.5663 106.755 11.5663C108.188 11.5663 109.323 12.0528 110.215 13.0798ZM103.242 15.269V18.323C103.782 19.323 104.89 20.0798 106.188 20.0798C107.106 20.0798 107.863 19.7555 108.485 19.1339C109.079 18.4852 109.404 17.7014 109.404 16.7825C109.404 15.8366 109.106 15.0798 108.485 14.4311C107.89 13.7825 107.106 13.4582 106.188 13.4582C104.89 13.4852 103.782 14.2149 103.242 15.269Z" fill="#2B2B51"/>
<path d="M115.324 20.4852C114.297 19.4582 113.783 18.242 113.783 16.7555C113.783 15.2961 114.27 14.0798 115.324 13.0528C116.378 12.0258 117.648 11.5393 119.243 11.5393C120.81 11.5393 122.108 12.0258 123.135 13.0528C124.162 14.0798 124.675 15.2961 124.675 16.7555C124.675 18.215 124.189 19.4312 123.135 20.4852C122.108 21.5123 120.81 21.9988 119.243 21.9988C117.648 21.9988 116.351 21.4852 115.324 20.4852ZM121.54 19.1339C122.162 18.5123 122.486 17.7285 122.486 16.7555C122.486 15.8096 122.189 15.0528 121.54 14.4042C120.918 13.7825 120.162 13.4582 119.216 13.4582C118.27 13.4582 117.513 13.7825 116.864 14.4042C116.243 15.0258 115.918 15.8096 115.918 16.7555C115.918 17.7015 116.216 18.4852 116.864 19.1339C117.486 19.7555 118.243 20.0798 119.216 20.0798C120.162 20.0798 120.918 19.7555 121.54 19.1339Z" fill="#2B2B51"/>
<path d="M127.567 21.7284V11.8365H129.756V15.5933L133.675 11.8365H136.459L131.756 16.269L137.161 21.7284H134.189L129.783 17.269V21.7284C129.756 21.7284 127.567 21.7284 127.567 21.7284Z" fill="#2B2B51"/>
<path d="M139.567 13.0528C140.513 12.0528 141.729 11.5663 143.243 11.5663C144.27 11.5663 145.108 11.8366 145.837 12.3771C147.297 13.4311 147.945 15.0528 147.945 16.8366V17.4041H140.351C140.621 19.0798 142.054 20.0798 144.081 20.0798C145.243 20.0798 146.297 19.7825 147.27 19.1879V21.0257C146.351 21.6744 145.135 21.9987 143.621 21.9987C142.108 21.9987 140.81 21.5122 139.729 20.5393C138.675 19.5663 138.162 18.323 138.162 16.7555C138.162 15.296 138.621 14.0528 139.567 13.0528ZM145.729 15.7555C145.702 15.1609 145.486 14.5933 145.026 14.1339C144.567 13.6474 143.945 13.4041 143.135 13.4041C141.54 13.4041 140.513 14.4852 140.378 15.7825H145.729V15.7555Z" fill="#2B2B51"/>
<path d="M160.081 13.0798C161 14.1068 161.432 15.323 161.432 16.8095C161.432 18.269 161 19.4852 160.081 20.5122C159.162 21.5393 158.027 22.0257 156.621 22.0257C155.081 22.0257 153.919 21.4852 153.081 20.4041V25.7825H150.892V11.8366H153.081V13.1879C153.919 12.1068 155.081 11.5663 156.621 11.5663C158.027 11.5663 159.189 12.0528 160.081 13.0798ZM153.108 15.269V18.323C153.648 19.323 154.756 20.0798 156.054 20.0798C156.973 20.0798 157.729 19.7555 158.351 19.1339C158.973 18.4852 159.27 17.7014 159.27 16.7825C159.27 15.8366 158.973 15.0798 158.351 14.4311C157.756 13.7825 156.973 13.4582 156.054 13.4582C154.756 13.4852 153.621 14.2149 153.108 15.269Z" fill="#2B2B51"/>
</svg>