<svg width="30" height="29" viewBox="0 0 30 29" fill="none" xmlns="http://www.w3.org/2000/svg">
<path d="M19.973 26.7297C11.0811 26.7297 3.86487 19.5405 3.86487 10.6756C3.86487 7.24322 4.94595 4.08105 6.78378 1.45943C2.7027 4.16214 0 8.75673 0 14C0 22.2702 6.72973 29 15.0541 29C18.2432 29 21.1892 28.027 23.6216 26.3243C22.4324 26.5946 21.2162 26.7297 19.973 26.7297ZM27.8378 21.9189C28.973 20.0811 29.7297 18.027 30 15.8919C28.1081 16.7567 26.0541 17.2162 23.973 17.2162C16.0541 17.2162 10.0541 10.8108 10.0541 2.94592C10.0541 2.35132 10.0811 1.78376 10.1622 1.21619C8.97297 3.37835 8.35135 5.78376 8.35135 8.27024C8.35135 16.3513 14.4865 22.8919 22.6216 22.8919C24.4595 22.8919 26.2162 22.5405 27.8378 21.9189ZM27.9459 6.24322C26.8378 6.70268 25.6757 6.94592 24.4865 6.99997C22.2703 7.10808 20.0811 6.48646 18.2162 5.24322C16.3784 3.99997 14.973 2.18916 14.2432 0.0810547C14.2162 0.432406 14.2162 0.810784 14.2432 1.16214C14.5405 7.81078 20.1892 12.9459 26.8649 12.6486C27.9189 12.5946 28.973 12.4054 29.973 12.1081C29.7297 10.054 29.027 8.027 27.9459 6.24322Z" fill="white"/>
</svg>
